<svg xmlns="http://www.w3.org/2000/svg" viewBox="0 0 120 32" fill="url(#a)"><linearGradient x1="-54.9053%" y1="-49.0932%" x2="173.1633%" y2="132.9381%" id="a"><stop stop-color="#0CECFC" offset="0%"/><stop stop-color="#0D6FCD" offset="100%"/></linearGradient><path d="M114.0947 20.7266l.3444-2.169c1.42-.114 2.45-.4066 3.301-.9204 1.033-.621 2.261-1.849 2.261-4.1715.002-1.248-.311-2.4764-.912-3.573-.622-1.129-1.815-1.8314-3.112-1.8327-.063 0-.126.002-.189.0052-.075-1.893-1.641-3.3904-3.549-3.3943-1.762-.007-3.522.123-5.263.39-1.512.235-2.704 1.647-2.956 3.152-.014.085-4.022 0-6.721 0-2.072 0-3.174 1.024-3.174 1.024s-1.02-1.327-3.708-1.025c-1.308.066-2.608.235-3.89.505.276-1.627.435-3.271.478-4.92V3.62C87.011 1.654 85.431.0427 83.45 0h-.0023c-2.5953 0-5.5646.352-7.0603.724-1.6594.4338-2.782 1.9667-2.6855 3.6672.083 1.526-.603 6.0696-.603 6.0696-1.67-1.385-3.866-2.176-6.396-2.176-2.297-.0117-4.562.5364-6.596 1.596-.685-.79-1.685-1.2407-2.735-1.2328h-.002c-1.995 0-3.542-.0258-5.018.099-1.141.0817-2.17.71-2.757 1.6836-.036-.068-.074-.1554-.112-.2216-.626-1.118-1.809-1.8153-3.098-1.8244-2.668 0-7.274.7833-7.473.877-1.579-.7054-3.296-1.0508-5.026-1.0108-2.567-.0352-5.092.645-7.289 1.9635-.359-5.375-5.017-9.0363-11.578-9.0363 0 0-8.036.3005-9.484.6157-1.726.3712-2.914 1.947-2.784 3.695.096 1.301.018 2.6087-.234 3.8888L.163 24.477c-.151.9155-.5894 3.6323 1.1246 5.6432.691.8112 1.975 1.7773 4.168 1.7773 1.0393 0 3.695-.1108 5.9062-1.1317.588-.271 1.089-.696 1.451-1.229 1.2 1.385 2.964 2.393 5.546 2.423 2.257-.0157 4.48-.5525 6.493-1.568 1.821 1.09 3.916 1.645 6.043 1.6007 3.846 0 7.449-1.551 9.726-4.1136 1.281 3.264 3.598 4.021 5.467 4.021 1.608 0 3.484-.171 5.368-1.115 1.55-.778 2.285-3.364 2.61-3.938 1.5706 3.176 4.734 5.151 8.732 5.151 3.184.028 6.28-1.039 8.7606-3.021.17.295.366.574.588.833.816.949 2.37 2.084 5.138 2.084 1.961.034 3.885-.526 5.516-1.605.904.86 2.354 1.707 4.566 1.707 1.661-.025 3.291-.446 4.7525-1.229 1.081.749 2.456 1.129 4.107 1.129 2.595 0 4.922-.901 6.47-2.451 1.274 1.255 3.498 2.552 7.251 2.552 3.493 0 6.931-2.216 8.698-5.205 1.356-2.292-.182-6.224-4.549-6.069h-.001z" fill="#FFF"/><path d="M12.311 4.7205c-2.445.033-5.1568.3083-5.946.5282.7892-.2216 3.501-.496 5.946-.5293v.001zm78.087 19.0943c.004-.2293.021-.481.0503-.7478-.0296.2676-.0464.5193-.0503.7478zm.1954 1.2464c-.0682-.1293-.1153-.2685-.1396-.4124.0243.144.0714.283.1396.4124zM13.8474 8.2558h-1.3812c-.1227.5554-.2125 1.1174-.269 1.6832l-1.0108 6.179h1.684c2.19 0 3.84-1.8516 3.84-4.6025 0-2.013-1.1112-3.2597-2.863-3.2597zm18.8336 6.658c-1.0105 0-1.7182 1.989-2.0883 3.5618h.539c1.28 0 2.2567-.825 2.425-1.8316.0188-.1363.0282-.2738.028-.4113.0128-.3175-.066-.632-.2273-.9066-.1396-.243-.3955-.399-.6778-.412h.0014zm33.009.2387c-.0353-.0302-.0736-.0566-.1144-.079-.077-.042-.1633-.0642-.2512-.0642-.1842.0064-.3607.0748-.5006.1938-.057.045-.1107.094-.1607.146-.046.048-.089.098-.13.15-.305.416-.543.876-.706 1.364-.034.095-.068.194-.101.293-.105.321-.201.669-.286 1.034-.063.277-.12.561-.17.854-.155.918-.233 1.846-.234 2.776-.002.469.023.937.074 1.403.012.106.026.207.042.305.039.267.098.53.176.787.043.139.096.275.159.407.175.356.398.554.663.554.103-.004.204-.031.296-.079.133-.064.253-.153.354-.261.403-.422.77-1.209 1.056-2.188.07-.24.135-.489.194-.75.07-.31.132-.631.186-.964.068-.425.122-.864.157-1.311.033-.415.05-.836.05-1.255.034-.917-.089-1.834-.366-2.711-.076-.227-.207-.434-.381-.601v.001zm48.4047 5.574l.3444-2.169c1.42-.1138 2.45-.4065 3.301-.9203 1.033-.621 2.261-1.849 2.261-4.1715.002-1.248-.311-2.4764-.912-3.573-.622-1.129-1.815-1.8314-3.112-1.8327-.063 0-.126.002-.189.0052-.075-1.893-1.641-3.3904-3.549-3.3943-1.762-.007-3.522.123-5.263.39-1.512.235-2.704 1.647-2.956 3.152-.014.085-4.022 0-6.721 0-2.072 0-3.174 1.024-3.174 1.024s-1.02-1.327-3.708-1.025c-1.308.066-2.608.235-3.89.505.276-1.627.435-3.271.478-4.92V3.62C87.011 1.654 85.431.0427 83.45 0h-.0023c-2.5953 0-5.5646.352-7.0603.724-1.6594.4338-2.782 1.9667-2.6855 3.6672.083 1.526-.603 6.0696-.603 6.0696-1.67-1.385-3.866-2.176-6.396-2.176-2.297-.0117-4.562.5364-6.596 1.596-.685-.79-1.685-1.2407-2.735-1.2328h-.002c-1.995 0-3.542-.0258-5.018.099-1.141.0817-2.17.71-2.757 1.6836-.036-.068-.074-.1554-.112-.2216-.626-1.118-1.809-1.8153-3.098-1.8244-2.668 0-7.274.7833-7.473.877-1.579-.7054-3.296-1.0508-5.026-1.0108-2.567-.0352-5.092.645-7.289 1.9635-.359-5.375-5.017-9.0363-11.578-9.0363 0 0-8.036.3005-9.484.6157-1.726.3712-2.914 1.947-2.784 3.695.096 1.301.018 2.6087-.234 3.8888L.163 24.477c-.151.9155-.5894 3.6323 1.1246 5.6432.691.8112 1.975 1.7773 4.168 1.7773 1.0393 0 3.695-.1108 5.9062-1.1317.588-.271 1.089-.696 1.451-1.229 1.2 1.385 2.964 2.393 5.546 2.423 2.257-.0157 4.48-.5525 6.493-1.568 1.821 1.09 3.916 1.645 6.043 1.6007 3.846 0 7.449-1.551 9.726-4.1136 1.281 3.264 3.598 4.021 5.467 4.021 1.608 0 3.484-.171 5.368-1.115 1.55-.778 2.285-3.364 2.61-3.938 1.5706 3.176 4.734 5.151 8.732 5.151 3.184.028 6.28-1.039 8.7606-3.021.17.295.366.574.588.833.816.949 2.37 2.084 5.138 2.084 1.961.034 3.885-.526 5.516-1.605.904.86 2.354 1.707 4.566 1.707 1.661-.025 3.291-.446 4.7525-1.229 1.081.749 2.456 1.129 4.107 1.129 2.595 0 4.922-.901 6.47-2.451 1.274 1.255 3.498 2.552 7.251 2.552 3.493 0 6.931-2.216 8.698-5.205 1.356-2.292-.182-6.224-4.549-6.069h-.001zm-91.0383-9.275c-.2068 2.7975-1.9454 5.1022-4.6604 6.5175l2.425 6.509c.7072 1.7792 1.1116 2.4955 1.9197 3.0652-.1912.1006-.3888.1887-.5916.2637-1.219.41-2.499.612-3.787.597-1.246 0-2.998-.29-4.043-3.443l-1.852-5.31h-1.819l-.809 5.075c-.097.567-.158 1.14-.184 1.714v.155c-.006.326.067.65.212.943l.007.014c-1.381.637-3.3.803-4.413.803-.96 0-1.852-.312-1.897-1.967-.005-.454.032-.907.112-1.354L6.032 9.94c.207-1.1286.315-2.273.322-3.4203-.0074 1.141-.1152 2.279-.3222 3.401.207-1.1456.315-2.3068.3223-3.4707-.002-.395.013-.559-.021-1.345h.033v.1382c.789-.22 3.47-.4954 5.915-.528.164-.003.295-.004.457-.004h2.291c1.624-.0387 3.236.2963 4.708.979.411.201.799.4423 1.161.72.343.2635.655.5637.931.8953.405.486.719 1.039.929 1.634.217.6234.326 1.279.322 1.9387 0 .1906-.007.3795-.021.5654v.007zm13.8638.811c-.0062-.0073-.0098-.0165-.0103-.026-.554-.1912-1.128-.3192-1.71-.3814.589.062 1.17.19 1.73.382-.002.01-.006.019-.011.026h.001zm-2.9424-.4767h.0042c-6.901 0-9.856 5.2515-9.856 9.9805 0-4.73 2.9464-9.9805 9.851-9.9805h.0008zm-1.8856 9.7648l-.0508.004c-.217.017-.441.032-.6698.042-.049.0016-.097.0052-.1465.007-.259.0098-.525.0162-.801.0162h-.068c.002.1234.007.245.015.3653.116 1.807.872 3.308 2.546 3.308.126 0 .252-.008.377-.021 1.586-.167 2.515-1.339 3.329-1.339.383.042.751.168 1.078.37l.81.538c-.001.001-.002.003-.003.004-.566.815-1.287 1.511-2.123 2.05-1.633 1.049-3.542 1.595-5.487 1.571-4.164 0-6.678-2.336-6.915-6.084-.004-.062.081-.124.078-.186-.005-.134.07-.265.07-.404v-.013c0-4.726 2.953-9.945 9.851-9.945.998-.019 1.99.137 2.934.459 0 .002-.001.004-.002.006 1.659.601 2.62 1.762 2.62 3.368 0 1.889-1.214 5.362-7.436 5.887zm19.1496 3.087c-.5894.9523-1.0748 1.9643-1.448 3.019-1.1442.604-2.4257.704-3.7058.704-1.0777 0-2.0544-.5365-2.593-3.3204l-1.5832-7.9185c-.3213-1.6034-.8185-3.1672-1.4826-4.6634.5682-.1347 1.1443-.2346 1.725-.299h.0035c.1323-.0162.2696-.0322.4105-.047.0154-.002.0307-.0035.0466-.0052.1337-.013.2715-.027.4133-.039.015 0 .03-.003.044-.004.313-.027.642-.053.99-.074.019 0 .039-.001.056-.003.145-.008.293-.015.443-.022l.153-.006c.123-.005.247-.009.373-.014.06 0 .121-.004.181-.005.128-.003.258-.006.389-.008.056 0 .112-.002.168-.003.187-.003.375-.004.567-.004.28.495.518 1.011.712 1.545.064.173.121.344.172.513.117.38.205.769.262 1.163l1.045 7.213c.876-1.711 1.718-3.49 2.493-5.268.515-1.184.945-2.402 1.288-3.646.112-.415.21-.832.295-1.251.384-.032.768-.059 1.151-.081.216-.011.431-.019.646-.027.162-.006.324-.015.486-.02.306-.01.61-.017.914-.022.065 0 .13-.003.194-.004.363-.006.724-.009 1.084-.01h.243c-.102 1.069-.387 2.113-.843 3.087-1.482 3.288-3.335 6.375-5.289 9.528l.002-.001zm19.6098.037c-.573.732-1.25 1.378-2.0093 1.918-.001.001-.0024.0017-.0036.0025-.1434.103-.29.2-.44.294-.0188.013-.038.024-.056.037-.134.083-.2703.163-.4087.24-.028.014-.052.029-.0776.043-.1395.075-.279.147-.4186.216-.024.012-.0474.024-.0717.035-.16.077-.324.15-.49.218-.003.002-.006.004-.009.005-.345.141-.699.263-1.058.366-.044.014-.09.025-.134.036-.131.036-.264.071-.397.101-.06.014-.122.028-.184.04-.12.026-.241.049-.362.071-.068.012-.135.024-.204.035-.12.019-.24.035-.363.05-.068.009-.137.018-.207.025-.13.014-.261.023-.392.032-.06.005-.121.011-.183.014-.192.01-.386.015-.582.015-.237 0-.467-.01-.692-.029-.076-.006-.148-.018-.223-.028-.146-.016-.292-.032-.433-.055-.087-.015-.167-.036-.253-.055-.123-.026-.247-.052-.367-.083-.087-.024-.17-.053-.255-.081-.111-.035-.223-.069-.328-.11-.085-.033-.167-.07-.248-.105-.1-.043-.2-.087-.295-.135-.081-.041-.16-.086-.238-.13-.09-.051-.18-.103-.266-.159-.077-.049-.151-.101-.225-.155-.081-.058-.161-.118-.239-.18-.071-.058-.139-.118-.209-.178-.073-.066-.143-.133-.212-.202s-.13-.132-.193-.201-.126-.146-.187-.2214c-.061-.0754-.118-.1474-.175-.2244-.056-.077-.108-.1585-.161-.24-.052-.082-.106-.162-.155-.247-.049-.0854-.091-.169-.136-.254-.044-.0854-.093-.1773-.135-.271-.04-.087-.074-.179-.11-.268-.039-.097-.08-.193-.114-.293-.032-.091-.057-.186-.085-.279-.031-.105-.065-.209-.092-.317-.022-.09-.038-.1862-.058-.279-.069-.322-.117-.648-.145-.976v-.009c-.02-.241-.03-.4866-.03-.74 0-3.5356 1.62-6.503 4.176-8.2946.414-.291.85-.548 1.305-.771.01-.006.02-.011.0306-.015.4506-.22.917-.406 1.3954-.556l.068-.022c.233-.072.47-.136.711-.192.03-.007.061-.013.091-.019.223-.049.45-.093.679-.128.027-.004.052-.01.079-.013.2383-.036.481-.0628.7253-.083l.1585-.011c.249-.0167.4997-.028.754-.028.215 0 .424.011.6304.026.057.005.115.011.172.016.165.0166.327.0387.486.065.04.007.083.0126.123.02.187.035.369.077.546.127.055.0155.111.033.167.0504.127.039.2514.081.373.1266.059.022.1186.044.177.0684.1545.063.307.132.451.207.06.03.117.065.175.098.0925.052.183.105.2714.162.0686.043.1367.088.203.135.0777.055.152.113.226.1713.111.0864.217.177.32.2723.057.053.115.105.1696.161.069.0694.136.142.202.2165.0412.0466.082.095.122.1435.151.181.291.371.4184.569 0 .0026.003.0048.004.007.0615.0967.118.1967.1736.297.025.045.05.09.074.136.5335 1.066.801 2.243.7796 3.433.0287 2.289-.717 4.523-2.118 6.342l-.005.001zm12.4445-18.56c-.096.8768-.231 1.8002-.382 2.6865l-.715 4.541-1.779 11.296c-.02.129-.032.258-.036.388 0 .028-.002.058-.002.087-.001.107.006.214.021.32.003.023.009.042.013.064.014.075.034.15.059.222.01.028.018.054.028.079.03.072.068.14.112.204.017.025.037.047.055.07.034.042.072.081.112.116.022.019.042.04.064.056.25.171.55.257.853.245-.253.359-.571.667-.938.911-.045.031-.091.062-.137.093-.09.058-.183.111-.279.165-.062.033-.125.064-.189.095-.093.046-.185.092-.282.132-.153.064-.312.123-.476.175-.072.023-.149.04-.223.061-.121.033-.242.065-.368.091-.077.017-.155.03-.235.044-.137.024-.276.044-.419.06-.07.008-.139.017-.209.023-.215.019-.433.031-.657.031-.093 0-.187-.002-.279-.006-.034-.002-.069-.005-.103-.007-.059-.003-.118-.008-.177-.013-.042-.004-.083-.009-.126-.015-.05-.005-.1-.012-.15-.019-.049-.007-.092-.016-.139-.025-.047-.009-.087-.017-.131-.026-.049-.011-.097-.023-.145-.036-.038-.01-.076-.022-.113-.034-.051-.015-.102-.032-.151-.049-.031-.012-.061-.025-.092-.038-.054-.022-.107-.044-.159-.068-.019-.009-.037-.021-.056-.031-.274-.139-.512-.339-.696-.584-.01-.014-.021-.026-.031-.04-.04-.058-.077-.1185-.111-.181-.011-.0205-.022-.04-.033-.0604-.032-.0637-.061-.131-.088-.1997l-.028-.0744c-.024-.071-.047-.146-.066-.224-.006-.026-.012-.054-.017-.081-.0176-.083-.033-.166-.044-.257-.003-.022-.004-.049-.007-.073-.0095-.098-.0176-.197-.0193-.304-.0037-.293.018-.585.065-.874l2.56-16.14c.0333-.209.065-.411.094-.606.117-.733.193-1.471.2285-2.212.023-.56.018-1.153-.0195-1.8447.095-.025.203-.048.321-.071.118-.024.247-.047.385-.07.212-.035.446-.069.7-.102.117-.016.238-.031.363-.045.373-.044.779-.083 1.207-.118.285-.023.581-.044.882-.061.753-.044 1.55-.07 2.34-.07 0 .5283-.033 1.1277-.091 1.764-.019.212-.041.428-.065.647l.005.0005zm17.276 20.369c-.775 1.1396-2.392 1.8778-4.346 1.8778-.206 0-.413-.0083-.616-.0277-.2-.0193-.398-.0523-.594-.099-.188-.0445-.371-.108-.547-.189-.858-.4022-1.413-1.264-1.139-3.004l.035-.3026c-.09.176-.186.345-.288.507-.196.312-.417.608-.662.884-.23.26-.481.502-.75.723-.13.108-.263.21-.398.305-.263.186-.538.353-.823.502-.521.271-1.073.479-1.644.62-.25.061-.503.109-.758.142-.223.029-.447.044-.672.044-.145 0-.284-.008-.418-.021-.049-.004-.096-.012-.144-.018-.081-.011-.159-.023-.235-.039-.059-.012-.115-.025-.17-.04-.056-.014-.113-.032-.167-.049-.063-.019-.126-.04-.186-.064-.03-.011-.058-.028-.088-.039-1.445-.637-1.889-2.361-1.519-4.626l1.011-6.441c.03-.186.056-.363.084-.538.01-.067.019-.133.028-.198.014-.103.028-.204.041-.305.011-.083.021-.166.031-.247.008-.076.016-.15.024-.224.038-.349.065-.695.081-1.048.002-.036.0045-.073.0057-.109.0045-.118.008-.239.0098-.36 0-.037 0-.075.002-.113.0017-.128.003-.257.0017-.391-.0036-.353-.014-.723-.036-1.132.072-.018.152-.035.2373-.053.0714-.015.147-.03.227-.045l.1044-.017c.056-.009.112-.02.17-.029.04-.006.0837-.013.1245-.019.058-.009.117-.019.178-.028.044-.005.091-.012.1368-.018.062-.009.124-.017.189-.027.049-.0063.1-.0124.151-.0182.065-.008.13-.017.198-.0243l.162-.018c.068-.008.136-.015.206-.023l.177-.017c.069-.007.139-.0132.209-.02l.1866-.0172c.072-.007.146-.013.2195-.0182.063-.0054.1264-.011.19-.016l.23-.017.195-.014c.0786-.005.1578-.009.2376-.014l.197-.013c.0837-.005.1674-.009.251-.013.064-.003.1274-.007.191-.009.089-.005.178-.008.268-.012.061-.002.122-.005.183-.0072.092-.003.185-.005.279-.008.06-.0022.121-.004.181-.006.099-.002.1976-.004.296-.005.056 0 .1095-.0024.164-.0024.1535-.002.307-.003.459-.003.034 1.408-.236 3.3207-.505 5.099l-.876 5.435c-.016.1008-.031.2-.045.2977-.015.106-.0073.21-.019.313-.024.248-.0343.498-.031.7477v.0085c-.011.2755.002.5516.039.825.021.143.064.282.128.412.043.091.119.162.213.2.028.01.058.015.0878.015.2 0 .511-.203.868-.5744.546-.598 1.005-1.2697 1.362-1.9946.1474-.288.2894-.5965.421-.922.132-.325.254-.669.363-1.028.054-.1786.104-.361.1506-.548l.472-3.087c.067-.419.126-.818.178-1.2088.078-.585.14-1.154.194-1.7487.055-.5943.095-1.216.134-1.908.064-.01.1324-.02.205-.0294.024-.0036.05-.007.075-.01l.155-.02c.034-.0035.07-.007.106-.012.048-.005.098-.0106.149-.015.04-.005.0814-.009.123-.014.05-.005.101-.01.154-.015.0466-.005.0935-.009.142-.013.0486-.0044.098-.009.1485-.014.0556-.0044.1114-.009.167-.014.045-.0034.092-.007.1395-.011.065-.005.128-.01.195-.0144.037-.003.075.083.112.08.293-.021.603.0305.93.0305.1017 0 .205-.0984.309-.104.0257 0 .05-.046.0757-.048.102-.004.206-.0303.31-.035.028-.0013.056-.0135.082-.015.103-.004.2067-.013.311-.0165.033 0 .065-.006.098-.006.1042-.004.21-.008.316-.0117.03 0 .06-.003.091-.004.111-.003.221-.006.333-.0086.024 0 .0473-.069.071-.07.119-.002.238-.0742.358-.0742.287 0 .577.0608.8703.0608-.082 1.72-.262 3.434-.54 5.134l-1.212 7.633c-.202 1.241.303 1.862 1.247 1.862l-.001.001zm3.516-2.058c-.017-.3666.005-.734.066-1.096l1.28-7.9492c-.23.0316-.358.0507-.486.071-.29.0506-.428.0758-.568.1032-.204.0396-.411.083-.629.1305-.166-1.145-.161-2.308.012-3.452.275-.013.492-.03.887-.046.202-.007.311-.014.426-.019.124-.005.243.011.371.008.135-.005.272.014.41.014.101 0 .235-.027.33-.027.437-1.192 1.145-2.189 1.382-3.598.404-.062.853-.128 1.393-.184.239-.025.387-.04.548-.053.196-.017.397-.031.609-.045.635-.04 1.341-.065 2.124-.065-.033 1.074-.169 2.4-.372 3.972h1.112c1.752 0 2.446-.216 3.019-.618.315.56.484 1.189.492 1.83-.002.856-.271 1.461-3.006 1.533-.184.005-.398.007-.605.007H111.4l-1.248 7.918c-.02.169-.026.205-.0294.243-.006.09-.01.164-.011.236-.019 1.089.5005 1.939 1.355 1.939 1.314 0 1.6186-1.04 2.1223-1.04.401.028.786.167 1.111.402l.807.502c-.907 1.712-3.131 3.323-5.556 3.323-3.627.002-5.731-1.59-5.861-4.035z"/></svg>